<svg xmlns="http://www.w3.org/2000/svg" viewBox="0 0 520 175" font-family="monospace">
  <rect width="520" height="175" fill="#f6f8fa" rx="8" stroke="#d0d7de" stroke-width="1"/>

  <!-- main branch line -->
  <line x1="60" y1="70" x2="440" y2="70" stroke="#57606a" stroke-width="2"/>
  <!-- branch line from C to feature -->
  <line x1="220" y1="70" x2="320" y2="130" stroke="#57606a" stroke-width="2"/>
  <!-- feature branch line -->
  <line x1="320" y1="130" x2="440" y2="130" stroke="#57606a" stroke-width="2"/>

  <!-- main commits -->
  <circle cx="60"  cy="70" r="16" fill="#0969da"/>
  <text x="60"  y="75" text-anchor="middle" fill="white" font-size="13" font-weight="bold">A</text>

  <circle cx="140" cy="70" r="16" fill="#0969da"/>
  <text x="140" y="75" text-anchor="middle" fill="white" font-size="13" font-weight="bold">B</text>

  <circle cx="220" cy="70" r="16" fill="#0969da"/>
  <text x="220" y="75" text-anchor="middle" fill="white" font-size="13" font-weight="bold">C</text>

  <circle cx="360" cy="70" r="16" fill="#0969da"/>
  <text x="360" y="75" text-anchor="middle" fill="white" font-size="13" font-weight="bold">D</text>

  <circle cx="440" cy="70" r="16" fill="#0969da"/>
  <text x="440" y="75" text-anchor="middle" fill="white" font-size="13" font-weight="bold">E</text>

  <!-- feature commits -->
  <circle cx="320" cy="130" r="16" fill="#bf8700"/>
  <text x="320" y="135" text-anchor="middle" fill="white" font-size="13" font-weight="bold">F</text>

  <circle cx="440" cy="130" r="16" fill="#bf8700"/>
  <text x="440" y="135" text-anchor="middle" fill="white" font-size="13" font-weight="bold">G</text>

  <!-- branch labels -->
  <rect x="8" y="50" width="44" height="20" rx="4" fill="#0969da"/>
  <text x="30" y="64" text-anchor="middle" fill="white" font-size="11" font-weight="bold">main</text>

  <rect x="250" y="145" width="120" height="20" rx="4" fill="#bf8700"/>
  <text x="310" y="159" text-anchor="middle" fill="white" font-size="11" font-weight="bold">feature/login</text>
</svg>
