<svg xmlns="http://www.w3.org/2000/svg" viewBox="0 0 520 190" font-family="monospace">
  <rect width="520" height="190" fill="#f6f8fa" rx="8" stroke="#d0d7de" stroke-width="1"/>

  <!-- lines (drawn first, behind circles) -->
  <line x1="90"  y1="80" x2="490" y2="80"  stroke="#57606a" stroke-width="2"/>
  <line x1="290" y1="80" x2="350" y2="150" stroke="#57606a" stroke-width="2"/>
  <line x1="350" y1="150" x2="470" y2="150" stroke="#57606a" stroke-width="2"/>

  <!-- main commits -->
  <circle cx="90"  cy="80" r="15" fill="#0969da"/>
  <text x="90"  y="85" text-anchor="middle" fill="white" font-size="13" font-weight="bold">A</text>

  <circle cx="190" cy="80" r="15" fill="#0969da"/>
  <text x="190" y="85" text-anchor="middle" fill="white" font-size="13" font-weight="bold">B</text>

  <circle cx="290" cy="80" r="15" fill="#0969da"/>
  <text x="290" y="85" text-anchor="middle" fill="white" font-size="13" font-weight="bold">C</text>

  <circle cx="400" cy="80" r="15" fill="#0969da"/>
  <text x="400" y="85" text-anchor="middle" fill="white" font-size="13" font-weight="bold">D</text>

  <circle cx="490" cy="80" r="15" fill="#0969da"/>
  <text x="490" y="85" text-anchor="middle" fill="white" font-size="13" font-weight="bold">E</text>

  <!-- feature commits -->
  <circle cx="350" cy="150" r="15" fill="#bf8700"/>
  <text x="350" y="155" text-anchor="middle" fill="white" font-size="13" font-weight="bold">F</text>

  <circle cx="470" cy="150" r="15" fill="#bf8700"/>
  <text x="470" y="155" text-anchor="middle" fill="white" font-size="13" font-weight="bold">G</text>

  <!-- branch labels: positioned to not touch any circle -->
  <!-- "main" badge right edge=67, circle A left edge=75 → gap 8px -->
  <rect x="5" y="62" width="62" height="18" rx="4" fill="#0969da"/>
  <text x="36" y="75" text-anchor="middle" fill="white" font-size="11" font-weight="bold">main</text>

  <!-- "feature/login" badge top=168, circle F/G bottom=165 → gap 3px -->
  <rect x="265" y="168" width="130" height="18" rx="4" fill="#bf8700"/>
  <text x="330" y="181" text-anchor="middle" fill="white" font-size="11" font-weight="bold">feature/login</text>
</svg>
