<svg xmlns="http://www.w3.org/2000/svg" viewBox="0 0 580 175" font-family="monospace">
  <rect width="580" height="175" fill="#f6f8fa" rx="8" stroke="#d0d7de" stroke-width="1"/>

  <!-- main branch line A-B-C -->
  <line x1="60" y1="70" x2="220" y2="70" stroke="#57606a" stroke-width="2"/>
  <!-- main line C to merge M -->
  <line x1="220" y1="70" x2="500" y2="70" stroke="#57606a" stroke-width="2"/>
  <!-- branch line from C down to feature -->
  <line x1="220" y1="70" x2="320" y2="130" stroke="#57606a" stroke-width="2"/>
  <!-- feature branch line D-E -->
  <line x1="320" y1="130" x2="420" y2="130" stroke="#57606a" stroke-width="2"/>
  <!-- merge line from E up to M -->
  <line x1="420" y1="130" x2="500" y2="70" stroke="#57606a" stroke-width="2"/>

  <!-- main commits -->
  <circle cx="60"  cy="70" r="16" fill="#0969da"/>
  <text x="60"  y="75" text-anchor="middle" fill="white" font-size="13" font-weight="bold">A</text>

  <circle cx="140" cy="70" r="16" fill="#0969da"/>
  <text x="140" y="75" text-anchor="middle" fill="white" font-size="13" font-weight="bold">B</text>

  <circle cx="220" cy="70" r="16" fill="#0969da"/>
  <text x="220" y="75" text-anchor="middle" fill="white" font-size="13" font-weight="bold">C</text>

  <!-- feature commits -->
  <circle cx="320" cy="130" r="16" fill="#bf8700"/>
  <text x="320" y="135" text-anchor="middle" fill="white" font-size="13" font-weight="bold">D</text>

  <circle cx="420" cy="130" r="16" fill="#bf8700"/>
  <text x="420" y="135" text-anchor="middle" fill="white" font-size="13" font-weight="bold">E</text>

  <!-- merge commit -->
  <circle cx="500" cy="70" r="16" fill="#1a7f37"/>
  <text x="500" y="75" text-anchor="middle" fill="white" font-size="13" font-weight="bold">M</text>
  <text x="500" y="50" text-anchor="middle" fill="#1a7f37" font-size="11">merge commit</text>

  <!-- branch labels -->
  <rect x="8" y="50" width="44" height="20" rx="4" fill="#0969da"/>
  <text x="30" y="64" text-anchor="middle" fill="white" font-size="11" font-weight="bold">main</text>

  <rect x="250" y="145" width="120" height="20" rx="4" fill="#bf8700"/>
  <text x="310" y="159" text-anchor="middle" fill="white" font-size="11" font-weight="bold">feature/login</text>
</svg>
