<svg xmlns="http://www.w3.org/2000/svg" viewBox="0 0 590 185" font-family="monospace">
  <rect width="590" height="185" fill="#f6f8fa" rx="8" stroke="#d0d7de" stroke-width="1"/>

  <!-- lines (drawn first, behind circles) -->
  <line x1="90"  y1="75" x2="280" y2="75"  stroke="#57606a" stroke-width="2"/>
  <line x1="280" y1="75" x2="545" y2="75"  stroke="#57606a" stroke-width="2"/>
  <line x1="280" y1="75" x2="360" y2="145" stroke="#57606a" stroke-width="2"/>
  <line x1="360" y1="145" x2="460" y2="145" stroke="#57606a" stroke-width="2"/>
  <line x1="460" y1="145" x2="545" y2="75"  stroke="#57606a" stroke-width="2"/>

  <!-- main commits -->
  <circle cx="90"  cy="75" r="16" fill="#0969da"/>
  <text x="90"  y="80" text-anchor="middle" fill="white" font-size="13" font-weight="bold">A</text>

  <circle cx="185" cy="75" r="16" fill="#0969da"/>
  <text x="185" y="80" text-anchor="middle" fill="white" font-size="13" font-weight="bold">B</text>

  <circle cx="280" cy="75" r="16" fill="#0969da"/>
  <text x="280" y="80" text-anchor="middle" fill="white" font-size="13" font-weight="bold">C</text>

  <!-- feature commits -->
  <circle cx="360" cy="145" r="16" fill="#bf8700"/>
  <text x="360" y="150" text-anchor="middle" fill="white" font-size="13" font-weight="bold">D</text>

  <circle cx="460" cy="145" r="16" fill="#bf8700"/>
  <text x="460" y="150" text-anchor="middle" fill="white" font-size="13" font-weight="bold">E</text>

  <!-- merge commit -->
  <!-- "merge commit" label top=40, circle M top=59 → gap 19px -->
  <text x="545" y="48" text-anchor="middle" fill="#1a7f37" font-size="11">merge commit</text>
  <circle cx="545" cy="75" r="16" fill="#1a7f37"/>
  <text x="545" y="80" text-anchor="middle" fill="white" font-size="13" font-weight="bold">M</text>

  <!-- branch labels -->
  <!-- "main" badge right=63, circle A left=74 → gap 11px -->
  <rect x="5" y="57" width="58" height="18" rx="4" fill="#0969da"/>
  <text x="34" y="70" text-anchor="middle" fill="white" font-size="11" font-weight="bold">main</text>

  <!-- "feature/login" badge top=163, circle D/E bottom=161 → gap 2px -->
  <rect x="270" y="163" width="130" height="18" rx="4" fill="#bf8700"/>
  <text x="335" y="176" text-anchor="middle" fill="white" font-size="11" font-weight="bold">feature/login</text>
</svg>
