<svg xmlns="http://www.w3.org/2000/svg" viewBox="0 0 620 230" font-family="monospace">
  <rect width="620" height="230" fill="#f6f8fa" rx="8" stroke="#d0d7de" stroke-width="1"/>

  <!-- BEFORE label -->
  <text x="14" y="26" fill="#57606a" font-size="12" font-weight="bold">ДО rebase:</text>

  <!-- before: main line -->
  <line x1="60" y1="60" x2="220" y2="60" stroke="#57606a" stroke-width="2"/>
  <!-- before: branch from C -->
  <line x1="220" y1="60" x2="300" y2="110" stroke="#57606a" stroke-width="2"/>
  <!-- before: feature line -->
  <line x1="300" y1="110" x2="380" y2="110" stroke="#57606a" stroke-width="2"/>

  <circle cx="60"  cy="60" r="14" fill="#0969da"/>
  <text x="60"  y="65" text-anchor="middle" fill="white" font-size="12" font-weight="bold">A</text>

  <circle cx="140" cy="60" r="14" fill="#0969da"/>
  <text x="140" y="65" text-anchor="middle" fill="white" font-size="12" font-weight="bold">B</text>

  <circle cx="220" cy="60" r="14" fill="#0969da"/>
  <text x="220" y="65" text-anchor="middle" fill="white" font-size="12" font-weight="bold">C</text>

  <circle cx="300" cy="110" r="14" fill="#bf8700"/>
  <text x="300" y="115" text-anchor="middle" fill="white" font-size="12" font-weight="bold">D</text>

  <circle cx="380" cy="110" r="14" fill="#bf8700"/>
  <text x="380" y="115" text-anchor="middle" fill="white" font-size="12" font-weight="bold">E</text>

  <!-- arrow down -->
  <text x="310" y="155" text-anchor="middle" fill="#57606a" font-size="22">↓</text>
  <text x="310" y="172" text-anchor="middle" fill="#57606a" font-size="12">git rebase main</text>

  <!-- AFTER label -->
  <text x="14" y="200" fill="#57606a" font-size="12" font-weight="bold">ПОСЛЕ rebase:</text>

  <!-- after: single line -->
  <line x1="60" y1="215" x2="540" y2="215" stroke="#57606a" stroke-width="2"/>

  <circle cx="60"  cy="215" r="14" fill="#0969da"/>
  <text x="60"  y="220" text-anchor="middle" fill="white" font-size="12" font-weight="bold">A</text>

  <circle cx="140" cy="215" r="14" fill="#0969da"/>
  <text x="140" y="220" text-anchor="middle" fill="white" font-size="12" font-weight="bold">B</text>

  <circle cx="220" cy="215" r="14" fill="#0969da"/>
  <text x="220" y="220" text-anchor="middle" fill="white" font-size="12" font-weight="bold">C</text>

  <circle cx="380" cy="215" r="14" fill="#bf8700"/>
  <text x="380" y="220" text-anchor="middle" fill="white" font-size="12" font-weight="bold">D'</text>

  <circle cx="460" cy="215" r="14" fill="#bf8700"/>
  <text x="460" y="220" text-anchor="middle" fill="white" font-size="12" font-weight="bold">E'</text>

  <text x="460" y="198" text-anchor="middle" fill="#57606a" font-size="11">история линейная</text>

  <!-- branch label before -->
  <rect x="8" y="42" width="44" height="18" rx="4" fill="#0969da"/>
  <text x="30" y="55" text-anchor="middle" fill="white" font-size="10" font-weight="bold">main</text>

  <rect x="240" y="122" width="110" height="18" rx="4" fill="#bf8700"/>
  <text x="295" y="135" text-anchor="middle" fill="white" font-size="10" font-weight="bold">feature/login</text>
</svg>
